<?xml version="1.0" encoding="utf-8"?>
<!-- Generator: Adobe Illustrator 25.0.0, SVG Export Plug-In . SVG Version: 6.00 Build 0)  -->
<svg version="1.1" id="Livello_1" xmlns="http://www.w3.org/2000/svg" xmlns:xlink="http://www.w3.org/1999/xlink" x="0px" y="0px"
	 viewBox="0 0 1300 1300" style="enable-background:new 0 0 1300 1300;" xml:space="preserve">
<path d="M650,11.1C297.1,11.1,11.1,297.1,11.1,650s286.1,638.9,638.9,638.9s638.9-286.1,638.9-638.9S1002.9,11.1,650,11.1z
	 M429.8,784.4c-32.3,0-58.4-26.2-58.4-58.4s26.2-58.4,58.4-58.4c32.3,0,58.4,26.2,58.4,58.4S462.1,784.4,429.8,784.4z
	 M1102.7,1019.8c-30.5,10.5-63.7-5.6-74.2-36.1L866.8,514.7L705.7,982.3c-0.4,1.4-0.9,2.7-1.5,4c0,0.1-0.1,0.1-0.1,0.2
	c-0.3,0.8-0.7,1.6-1,2.4c-0.1,0.2-0.1,0.3-0.2,0.5c-0.3,0.7-0.6,1.3-1,2c-0.1,0.2-0.3,0.5-0.4,0.7c-0.3,0.5-0.6,1.1-0.9,1.6
	c-0.2,0.3-0.4,0.7-0.6,1c-0.3,0.4-0.5,0.9-0.8,1.3c-0.3,0.4-0.5,0.8-0.8,1.2c-0.2,0.4-0.5,0.7-0.7,1.1c-0.3,0.4-0.6,0.9-0.9,1.3
	c-0.2,0.3-0.5,0.6-0.7,0.9c-0.3,0.4-0.7,0.9-1,1.3c-0.2,0.3-0.5,0.6-0.8,0.9c-0.4,0.4-0.7,0.8-1.1,1.2c-0.3,0.3-0.6,0.6-0.9,0.9
	c-0.3,0.4-0.7,0.7-1,1.1c-0.4,0.4-0.7,0.7-1.1,1c-0.3,0.3-0.6,0.6-0.9,0.9c-0.4,0.4-0.8,0.7-1.2,1.1c-0.3,0.3-0.6,0.5-0.9,0.8
	c-0.4,0.4-0.9,0.7-1.3,1c-0.3,0.2-0.6,0.5-0.9,0.7c-0.4,0.3-0.9,0.6-1.3,0.9c-0.3,0.2-0.7,0.5-1,0.7c-0.4,0.3-0.8,0.5-1.2,0.8
	c-0.4,0.3-0.9,0.5-1.3,0.8c-0.3,0.2-0.7,0.4-1,0.6c-0.5,0.3-1.1,0.6-1.6,0.9c-0.2,0.1-0.5,0.3-0.7,0.4c-0.7,0.3-1.3,0.7-2,1
	c-0.2,0.1-0.3,0.1-0.5,0.2c-0.8,0.4-1.6,0.7-2.4,1c-0.1,0-0.1,0.1-0.2,0.1c-2.7,1.1-5.6,2-8.4,2.7c0,0,0,0,0,0
	c-0.9,0.2-1.8,0.4-2.7,0.6c-0.1,0-0.1,0-0.2,0c-0.8,0.2-1.7,0.3-2.5,0.4c-0.1,0-0.3,0-0.4,0.1c-0.7,0.1-1.5,0.2-2.2,0.2
	c-0.3,0-0.5,0-0.8,0.1c-0.6,0-1.2,0.1-1.9,0.1c-0.4,0-0.7,0-1.1,0c-0.5,0-1,0-1.5,0c-0.5,0-1,0-1.5,0c-0.4,0-0.7,0-1.1,0
	c-0.6,0-1.2-0.1-1.9-0.1c-0.3,0-0.5,0-0.8-0.1c-0.7-0.1-1.5-0.1-2.2-0.2c-0.1,0-0.3,0-0.4-0.1c-0.8-0.1-1.7-0.2-2.5-0.4
	c-0.1,0-0.1,0-0.2,0c-0.9-0.2-1.8-0.4-2.7-0.6c0,0,0,0,0,0c-2.9-0.7-5.7-1.6-8.4-2.7c-0.1,0-0.1-0.1-0.2-0.1c-0.8-0.3-1.6-0.7-2.4-1
	c-0.2-0.1-0.3-0.1-0.5-0.2c-0.7-0.3-1.3-0.6-2-1c-0.2-0.1-0.5-0.3-0.7-0.4c-0.5-0.3-1.1-0.6-1.6-0.9c-0.3-0.2-0.7-0.4-1-0.6
	c-0.4-0.3-0.9-0.5-1.3-0.8c-0.4-0.3-0.8-0.5-1.2-0.8c-0.4-0.2-0.7-0.5-1-0.7c-0.4-0.3-0.9-0.6-1.3-0.9c-0.3-0.2-0.6-0.5-0.9-0.7
	c-0.4-0.3-0.9-0.7-1.3-1c-0.3-0.2-0.6-0.5-0.9-0.8c-0.4-0.4-0.8-0.7-1.2-1.1c-0.3-0.3-0.6-0.6-0.9-0.9c-0.4-0.3-0.7-0.7-1.1-1
	c-0.4-0.4-0.7-0.7-1-1.1c-0.3-0.3-0.6-0.6-0.9-0.9c-0.4-0.4-0.7-0.8-1.1-1.2c-0.3-0.3-0.5-0.6-0.8-0.9c-0.4-0.4-0.7-0.9-1-1.3
	c-0.2-0.3-0.5-0.6-0.7-0.9c-0.3-0.4-0.6-0.9-0.9-1.3c-0.2-0.3-0.5-0.7-0.7-1.1c-0.3-0.4-0.5-0.8-0.8-1.2c-0.3-0.4-0.5-0.9-0.8-1.3
	c-0.2-0.3-0.4-0.7-0.6-1c-0.3-0.5-0.6-1.1-0.9-1.6c-0.1-0.2-0.3-0.5-0.4-0.7c-0.3-0.7-0.7-1.3-1-2c-0.1-0.2-0.1-0.3-0.2-0.5
	c-0.4-0.8-0.7-1.6-1-2.4c0-0.1-0.1-0.1-0.1-0.2c-0.5-1.3-1-2.7-1.5-4L433.2,514.7L271.5,983.6c-10.5,30.5-43.7,46.7-74.2,36.1
	c-30.5-10.5-46.7-43.7-36.1-74.2l216-626.7c3-10,8.7-19.2,16.5-26.4c0.1,0,0.1-0.1,0.2-0.1c0.5-0.5,1.1-1,1.6-1.4
	c0.2-0.2,0.4-0.3,0.6-0.5c0.4-0.3,0.8-0.6,1.2-1c0.4-0.3,0.7-0.6,1.1-0.9c0.2-0.2,0.5-0.4,0.7-0.5c0.6-0.4,1.2-0.8,1.7-1.2
	c0.1,0,0.1-0.1,0.2-0.1c14.6-9.6,33.4-12.6,51.2-6.5c18.7,6.5,32,21.5,37.1,39.2l160.6,466l160.7-466.1c3.7-12.8,11.8-24.2,23.1-32
	c0.1-0.1,0.2-0.2,0.3-0.2c0.4-0.3,0.9-0.6,1.3-0.9c0.5-0.3,0.9-0.6,1.4-0.8c0.1-0.1,0.3-0.2,0.5-0.3c14.2-8.3,31.8-10.6,48.6-4.9
	c18.4,6.4,31.6,21.1,36.8,38.5l216.1,626.8C1149.4,976,1133.2,1009.2,1102.7,1019.8z"/>
</svg>
